<svg xmlns="http://www.w3.org/2000/svg" viewBox="0 0 512 512" role="img" aria-label="Catch Solar logo">
  <rect width="512" height="512" rx="120" fill="#1c1c1c"/>
  <path
    d="M256 88c-62.7 0-118.8 34.3-148.1 88.4l39.9 21.7c21.5-39.2 62.7-65.1 108.2-65.1 65.6 0 120.1 53.1 125 118.9H322v45h59c-4.9 65.8-59.4 118.9-125 118.9-45.5 0-86.7-25.9-108.2-65.1l-39.9 21.7C137.2 389.7 193.3 424 256 424c104.9 0 190-85.1 190-190S360.9 88 256 88Z"
    fill="#ffffff"
  />
  <circle cx="256" cy="274" r="56" fill="#ffffff"/>
  <path
    d="M227 184h58l-17 46h44l-78 98 17-56h-40l16-88Z"
    fill="#1c1c1c"
  />
</svg>
